<?xml version="1.0" encoding="utf-8"?>
<!-- Generator: Adobe Illustrator 24.1.2, SVG Export Plug-In . SVG Version: 6.00 Build 0)  -->
<svg version="1.1" id="Layer_1" xmlns="http://www.w3.org/2000/svg" xmlns:xlink="http://www.w3.org/1999/xlink" x="0px" y="0px"
	 viewBox="0 0 175 61.3" style="enable-background:new 0 0 175 61.3;" xml:space="preserve">
<style type="text/css">
	.st0{fill:#2D3748;}
	.st1{fill:url(#SVGID_1_);}
</style>
<path class="st0" d="M52.3,29.1h-2.9v5.3c0,1.4,1,1.4,2.9,1.3v3c-4.6,0.5-6.2-0.8-6.2-4.3v-5.3h-2.2V26h2.2v-3.2l3.3-1V26h2.9V29.1z
	 M64.5,26h3.3v12.7h-3.3v-1.5c-0.9,1.1-2.3,1.9-4.1,1.9c-3.4,0-6.2-2.9-6.2-6.7s2.8-6.7,6.2-6.7c1.9,0,3.2,0.7,4.2,1.9L64.5,26
	L64.5,26z M60.9,35.9c2,0,3.5-1.5,3.5-3.6c0-2.1-1.5-3.6-3.5-3.6c-2,0-3.5,1.5-3.5,3.6C57.4,34.5,58.9,35.9,60.9,35.9z M72.4,24.5
	c-1.1,0-2-0.9-2-2c0-1.1,0.9-2,2-2c1.1,0,2,0.9,2,2C74.4,23.5,73.5,24.5,72.4,24.5L72.4,24.5z M70.7,38.7V26H74v12.7H70.7z M77,38.7
	V20.1h3.3v18.6H77z M97.6,26h3.5l-4,12.7H94L91.6,31l-2.3,7.7h-3.1l-4-12.7h3.5l2.2,7.8l2.3-7.8h3.1l2.3,7.8L97.6,26L97.6,26z
	 M104.5,24.5c-1.1,0-2-0.9-2-2c0-1.1,0.9-2,2-2c1.1,0,2,0.9,2,2C106.6,23.5,105.7,24.5,104.5,24.5z M102.9,38.7V26h3.3v12.7H102.9z
	 M116.3,25.6c2.7,0,4.8,1.9,4.8,5.3v7.8h-3.3v-7.4c0-1.7-1-2.6-2.5-2.6c-1.6,0-2.8,0.9-2.8,3.2v6.9h-3.3V26h3.3v1.4
	C113.2,26.3,114.6,25.6,116.3,25.6z M133.5,20.9h3.3v17.8h-3.3v-1.5c-0.9,1.2-2.3,1.9-4.1,1.9c-3.4,0-6.2-2.9-6.2-6.7
	s2.8-6.7,6.2-6.7c1.9,0,3.2,0.7,4.1,1.9V20.9z M130,35.9c2,0,3.5-1.5,3.5-3.6c0-2.1-1.5-3.6-3.5-3.6c-2,0-3.5,1.5-3.5,3.6
	C126.5,34.5,128,35.9,130,35.9z M145.9,39.1c-3.9,0-6.7-2.9-6.7-6.7s2.9-6.7,6.7-6.7c2.5,0,4.7,1.3,5.7,3.3l-2.8,1.7
	c-0.5-1-1.6-1.7-2.9-1.7c-2,0-3.4,1.4-3.4,3.5c0,2,1.5,3.5,3.4,3.5c1.3,0,2.4-0.6,2.9-1.7l2.9,1.6C150.5,37.7,148.4,39.1,145.9,39.1
	L145.9,39.1z M156.5,29.6c0,1.9,6.6,0.7,6.6,5.4c0,2.7-2.4,4.1-5.1,4.1c-2.5,0-4.4-1.1-5.3-3l2.9-1.6c0.4,1,1.2,1.7,2.5,1.7
	c1,0,1.8-0.4,1.8-1.1c0-1.9-6.6-0.8-6.6-5.3c0-2.6,2.2-4,4.8-4c2.1,0,3.8,0.9,4.8,2.7l-2.8,1.5c-0.4-0.8-1.1-1.3-2-1.3
	C157.2,28.6,156.5,28.9,156.5,29.6z M168.3,29.6c0,1.9,6.6,0.7,6.6,5.4c0,2.7-2.4,4.1-5.1,4.1c-2.5,0-4.4-1.1-5.3-3l2.9-1.6
	c0.4,1,1.2,1.7,2.5,1.7c1,0,1.8-0.4,1.8-1.1c0-1.9-6.6-0.8-6.6-5.3c0-2.6,2.2-4,4.8-4c2.1,0,3.8,0.9,4.8,2.7l-2.8,1.5
	c-0.4-0.8-1.1-1.3-2-1.3C169,28.6,168.3,28.9,168.3,29.6z"/>
<linearGradient id="SVGID_1_" gradientUnits="userSpaceOnUse" x1="2.9113" y1="40.1904" x2="31.4533" y2="23.0654" gradientTransform="matrix(1 0 0 -1 0 62.2545)">
	<stop  offset="0" style="stop-color:#2383AE"/>
	<stop  offset="1" style="stop-color:#6DD7B9"/>
</linearGradient>
<path class="st1" d="M8.6,27.2c1.1-4.6,4-6.9,8.6-6.9c6.9,0,7.7,5.2,11.2,6c2.3,0.6,4.3-0.3,6-2.6c-1.1,4.6-4,6.9-8.6,6.9
	c-6.9,0-7.7-5.2-11.2-6C12.3,24,10.3,24.9,8.6,27.2L8.6,27.2z M0,37.5c1.1-4.6,4-6.9,8.6-6.9c6.9,0,7.7,5.2,11.2,6
	c2.3,0.6,4.3-0.3,6-2.6c-1.1,4.6-4,6.9-8.6,6.9c-6.9,0-7.7-5.2-11.2-6C3.7,34.4,1.7,35.2,0,37.5z"/>
<g>
	<path class="st0" d="M67.6,48.8V50h-2v2h-1.2v-2h-2v-1.2h2v-2h1.2v2H67.6z"/>
	<path class="st0" d="M76.9,53.6l-1.8-3.1h-1.6v3.1h-1.4v-8.4h3.4c0.8,0,1.4,0.3,1.9,0.8c0.5,0.5,0.8,1.2,0.8,1.9
		c0,0.5-0.2,1-0.5,1.5c-0.3,0.4-0.7,0.8-1.2,1l1.9,3.3H76.9z M73.5,46.5v2.8h2c0.4,0,0.7-0.1,0.9-0.4c0.3-0.3,0.4-0.6,0.4-1
		c0-0.4-0.1-0.7-0.4-1c-0.3-0.3-0.6-0.4-0.9-0.4H73.5z"/>
	<path class="st0" d="M81.9,53.8c-0.9,0-1.6-0.3-2.2-0.9c-0.6-0.6-0.9-1.4-0.9-2.2s0.3-1.6,0.9-2.2c0.6-0.6,1.4-0.9,2.2-0.9
		c0.9,0,1.6,0.3,2.3,0.9c0.6,0.6,0.9,1.4,0.9,2.2s-0.3,1.6-0.9,2.2C83.5,53.5,82.8,53.8,81.9,53.8z M80.5,52
		c0.4,0.4,0.8,0.5,1.3,0.5c0.5,0,1-0.2,1.3-0.5c0.4-0.4,0.5-0.8,0.5-1.4s-0.2-1-0.5-1.4c-0.4-0.4-0.8-0.5-1.3-0.5
		c-0.5,0-1,0.2-1.3,0.5c-0.4,0.4-0.5,0.8-0.5,1.4S80.2,51.6,80.5,52z"/>
	<path class="st0" d="M89.6,47.5c0.8,0,1.5,0.3,2.1,0.9c0.6,0.6,0.9,1.4,0.9,2.2c0,0.9-0.3,1.6-0.9,2.2c-0.6,0.6-1.3,0.9-2.1,0.9
		c-0.9,0-1.6-0.3-2.1-1v0.9h-1.3v-8.4h1.3v3.3C88,47.8,88.7,47.5,89.6,47.5z M88.1,52c0.4,0.4,0.8,0.5,1.4,0.5s1-0.2,1.4-0.5
		c0.4-0.4,0.5-0.8,0.5-1.4s-0.2-1-0.5-1.4c-0.4-0.4-0.8-0.5-1.4-0.5s-1,0.2-1.4,0.5c-0.4,0.4-0.5,0.8-0.5,1.4S87.7,51.6,88.1,52z"/>
	<path class="st0" d="M94.8,51.2c0.1,0.5,0.3,0.8,0.7,1c0.3,0.2,0.8,0.4,1.3,0.4c0.7,0,1.2-0.2,1.5-0.7l1.1,0.6
		c-0.6,0.9-1.5,1.3-2.6,1.3c-1,0-1.8-0.3-2.4-0.9c-0.6-0.6-0.9-1.3-0.9-2.3c0-0.9,0.3-1.6,0.9-2.3c0.6-0.6,1.4-0.9,2.3-0.9
		c0.9,0,1.6,0.3,2.2,0.9c0.6,0.6,0.8,1.4,0.8,2.2c0,0.1,0,0.3,0,0.5H94.8z M94.8,50.1h3.5c-0.1-0.5-0.3-0.9-0.6-1.1
		c-0.3-0.2-0.7-0.4-1.1-0.4c-0.5,0-0.9,0.1-1.2,0.4C95.1,49.3,94.9,49.7,94.8,50.1z"/>
	<path class="st0" d="M102.1,48.6c0.3-0.7,0.9-1.1,1.8-1.1v1.4c-0.5,0-0.9,0.1-1.3,0.4c-0.4,0.3-0.6,0.7-0.6,1.3v3h-1.3v-6h1.3V48.6
		z"/>
	<path class="st0" d="M108.4,48.9h-1.5v2.9c0,0.2,0.1,0.4,0.2,0.5c0.1,0.1,0.3,0.2,0.5,0.2s0.5,0,0.8,0v1.2c-1,0.1-1.7,0-2.1-0.3
		c-0.4-0.3-0.6-0.8-0.6-1.6v-2.9h-1.1v-1.2h1.1v-1.3l1.3-0.4v1.7h1.5V48.9z"/>
	<path class="st0" d="M113.8,54.8c-0.9-1.8-1.3-3.6-1.3-5.4s0.4-3.6,1.3-5.4h1.3c-0.9,1.8-1.3,3.6-1.3,5.4s0.4,3.6,1.3,5.4H113.8z"
		/>
	<path class="st0" d="M121.7,45.2v1.3h-2.4v7.1h-1.4v-7.1h-2.4v-1.3H121.7z"/>
	<path class="st0" d="M125.8,47.5c0.7,0,1.2,0.2,1.7,0.7c0.4,0.4,0.6,1,0.6,1.8v3.7h-1.3v-3.6c0-0.4-0.1-0.8-0.4-1s-0.6-0.4-1-0.4
		c-0.5,0-0.8,0.1-1.1,0.4c-0.3,0.3-0.4,0.7-0.4,1.3v3.2h-1.3v-8.4h1.3v3.2C124.3,47.8,124.9,47.5,125.8,47.5z"/>
	<path class="st0" d="M134.2,47.6h1.3v6h-1.3v-0.9c-0.5,0.7-1.2,1-2.1,1c-0.8,0-1.5-0.3-2.1-0.9c-0.6-0.6-0.9-1.4-0.9-2.2
		c0-0.9,0.3-1.6,0.9-2.2c0.6-0.6,1.3-0.9,2.1-0.9c0.9,0,1.6,0.3,2.1,1V47.6z M131,52c0.4,0.4,0.8,0.5,1.4,0.5s1-0.2,1.4-0.5
		c0.4-0.4,0.5-0.8,0.5-1.4s-0.2-1-0.5-1.4c-0.4-0.4-0.8-0.5-1.4-0.5s-1,0.2-1.4,0.5c-0.4,0.4-0.5,0.8-0.5,1.4S130.6,51.6,131,52z"/>
	<path class="st0" d="M140.4,48.9h-1.5v2.9c0,0.2,0.1,0.4,0.2,0.5c0.1,0.1,0.3,0.2,0.5,0.2s0.5,0,0.8,0v1.2c-1,0.1-1.7,0-2.1-0.3
		c-0.4-0.3-0.6-0.8-0.6-1.6v-2.9h-1.1v-1.2h1.1v-1.3l1.3-0.4v1.7h1.5V48.9z"/>
	<path class="st0" d="M143.5,45.2l-0.8,3.1h-1.1l0.5-3.1H143.5z"/>
	<path class="st0" d="M145.1,49.3c0,0.2,0.1,0.4,0.3,0.5c0.2,0.1,0.5,0.2,0.8,0.3s0.6,0.2,1,0.3c0.3,0.1,0.6,0.3,0.8,0.6
		c0.2,0.3,0.3,0.6,0.3,1c0,0.6-0.2,1-0.7,1.4c-0.4,0.3-1,0.5-1.7,0.5c-0.6,0-1.1-0.1-1.5-0.4c-0.4-0.2-0.7-0.6-0.9-1l1.1-0.6
		c0.2,0.6,0.7,0.9,1.3,0.9s1-0.2,1-0.7c0-0.2-0.1-0.3-0.3-0.5c-0.2-0.1-0.5-0.2-0.8-0.3c-0.3-0.1-0.6-0.2-1-0.3
		c-0.3-0.1-0.6-0.3-0.8-0.6s-0.3-0.6-0.3-1c0-0.6,0.2-1,0.6-1.3s0.9-0.5,1.6-0.5c0.5,0,0.9,0.1,1.3,0.3c0.4,0.2,0.7,0.5,0.9,0.9
		l-1.1,0.6c-0.2-0.5-0.6-0.7-1.1-0.7c-0.2,0-0.5,0.1-0.6,0.2C145.2,48.9,145.1,49.1,145.1,49.3z"/>
	<path class="st0" d="M160.6,45.2v8.4h-1.4v-6l-2.6,4.2h-0.2l-2.6-4.2v6h-1.4v-8.4h1.5l2.5,4.2l2.5-4.2H160.6z"/>
	<path class="st0" d="M163.2,51.2c0.1,0.5,0.3,0.8,0.7,1c0.3,0.2,0.8,0.4,1.3,0.4c0.7,0,1.2-0.2,1.5-0.7l1.1,0.6
		c-0.6,0.9-1.5,1.3-2.6,1.3c-1,0-1.8-0.3-2.4-0.9c-0.6-0.6-0.9-1.3-0.9-2.3c0-0.9,0.3-1.6,0.9-2.3c0.6-0.6,1.4-0.9,2.3-0.9
		c0.9,0,1.6,0.3,2.2,0.9c0.6,0.6,0.8,1.4,0.8,2.2c0,0.1,0,0.3,0,0.5H163.2z M163.2,50.1h3.5c-0.1-0.5-0.3-0.9-0.6-1.1
		c-0.3-0.2-0.7-0.4-1.1-0.4c-0.5,0-0.9,0.1-1.2,0.4C163.5,49.3,163.3,49.7,163.2,50.1z"/>
	<path class="st0" d="M170.6,53.5c-0.2,0.2-0.4,0.3-0.6,0.3s-0.5-0.1-0.6-0.3s-0.3-0.4-0.3-0.6s0.1-0.5,0.3-0.6
		c0.2-0.2,0.4-0.3,0.6-0.3c0.2,0,0.5,0.1,0.6,0.3c0.2,0.2,0.3,0.4,0.3,0.6S170.8,53.3,170.6,53.5z M169.4,51l-0.3-3.4v-2.4h1.6v2.4
		l-0.3,3.4H169.4z"/>
	<path class="st0" d="M173,54.8h-1.3c0.9-1.8,1.3-3.6,1.3-5.4s-0.4-3.6-1.3-5.4h1.3c0.9,1.8,1.3,3.6,1.3,5.4S173.9,53.1,173,54.8z"
		/>
</g>
</svg>
