<?xml version="1.0" encoding="utf-8"?>
<!-- Generator: Adobe Illustrator 24.1.2, SVG Export Plug-In . SVG Version: 6.00 Build 0)  -->
<svg version="1.1" id="Layer_1" xmlns="http://www.w3.org/2000/svg" xmlns:xlink="http://www.w3.org/1999/xlink" x="0px" y="0px"
	 viewBox="0 0 190 140" style="enable-background:new 0 0 190 140;" xml:space="preserve">
<style type="text/css">
	.st0{fill:#161E2E;}
	.st1{fill:#252F3F;filter:url(#Adobe_OpacityMaskFilter);}
	.st2{mask:url(#a_1_);}
	.st3{fill:#252F3F;}
	.st4{fill-rule:evenodd;clip-rule:evenodd;fill:#16BDCA;}
	.st5{mask:url(#b_1_);fill-rule:evenodd;clip-rule:evenodd;fill:#16BDCA;}
	.st6{fill:#FFFFFF;}
</style>
<path class="st0" d="M0,0h190v140H0V0z"/>
<defs>
	<filter id="Adobe_OpacityMaskFilter" filterUnits="userSpaceOnUse" x="-563" y="-264" width="1417.6" height="472.2">
		<feColorMatrix  type="matrix" values="1 0 0 0 0  0 1 0 0 0  0 0 1 0 0  0 0 0 1 0"/>
	</filter>
</defs>
<mask maskUnits="userSpaceOnUse" x="-563" y="-264" width="1417.6" height="472.2" id="a_1_">
	<path class="st1" d="M8,0h174c4.4,0,8,3.6,8,8v124c0,4.4-3.6,8-8,8H8c-4.4,0-8-3.6-8-8V8C0,3.6,3.6,0,8,0z"/>
</mask>
<g class="st2">
	<path class="st3" d="M-563-164.6c0,0,207.6,9,359.4,49.7S132.4,21.8,132.4,21.8s184.3,96,336.1,136.6s359.4,49.7,359.4,49.7
		l26.7-99.5L-536.4-264L-563-164.6L-563-164.6z"/>
	<path class="st3" d="M0,0"/>
	<path class="st3" d="M0,0"/>
	<path class="st3" d="M0,0"/>
	<path class="st3" d="M0,0"/>
</g>
<path class="st4" d="M30.6,102.6c-3.6,0-5.9,1.8-6.8,5.4c1.4-1.8,3-2.5,4.8-2c1,0.3,1.8,1,2.6,1.8c1.3,1.4,2.9,2.9,6.3,2.9
	c3.6,0,5.9-1.8,6.8-5.4c-1.4,1.8-3,2.5-4.8,2c-1-0.3-1.8-1-2.6-1.8C35.5,104.2,34,102.6,30.6,102.6z M23.8,110.8
	c-3.6,0-5.9,1.8-6.8,5.4c1.4-1.8,3-2.5,4.8-2c1,0.3,1.8,1,2.6,1.8c1.3,1.4,2.9,2.9,6.3,2.9c3.6,0,5.9-1.8,6.8-5.4
	c-1.4,1.8-3,2.5-4.8,2c-1-0.3-1.8-1-2.6-1.8C28.7,112.4,27.2,110.8,23.8,110.8z M0,0"/>
<path class="st4" d="M0,0"/>
<defs>
	<filter id="Adobe_OpacityMaskFilter_1_">
		<feColorMatrix  type="matrix" values="1 0 0 0 0  0 1 0 0 0  0 0 1 0 0  0 0 0 1 0"/>
	</filter>
</defs>
<mask maskUnits="userSpaceOnUse" x="0" y="0" width="0" height="0" id="b_1_">
</mask>
<path class="st5" d="M0,0"/>
<g>
	<path class="st6" d="M18.1,19.4h3.5v21.5h-3.5V19.4z"/>
	<path class="st6" d="M30.4,19.4l-2.1,8h-2.8l1.2-8H30.4z"/>
	<path class="st6" d="M50.6,25.2c1.7,0,3.1,0.6,4.2,1.7c1.1,1.1,1.6,2.6,1.6,4.5v9.5h-3.3v-9.3c0-1.1-0.3-1.9-0.8-2.5
		s-1.3-0.9-2.2-0.9c-1,0-1.8,0.3-2.4,1c-0.6,0.7-0.9,1.7-0.9,3v8.6h-3.3v-9.3c0-1.1-0.3-1.9-0.8-2.5c-0.5-0.6-1.2-0.9-2.1-0.9
		c-1,0-1.8,0.3-2.5,1c-0.6,0.7-1,1.7-1,3v8.6h-3.3V25.6h3.3v1.8c1-1.5,2.4-2.2,4.4-2.2c2,0,3.4,0.8,4.4,2.4
		C47,26,48.5,25.2,50.6,25.2z"/>
	<path class="st6" d="M75.7,22.2c-2.4-0.2-3.6,0.8-3.6,3v0.3h3.6v3.2h-3.6v12.1h-3.3V28.8h-2.3v-3.2h2.3v-0.3c0-2.1,0.6-3.7,1.8-4.8
		c1.2-1.1,2.9-1.6,5.2-1.4V22.2z"/>
	<path class="st6" d="M84.2,41.3c-2.3,0-4.2-0.8-5.7-2.3c-1.6-1.6-2.4-3.5-2.4-5.7c0-2.3,0.8-4.2,2.4-5.7c1.6-1.6,3.5-2.3,5.7-2.3
		c2.3,0,4.2,0.8,5.8,2.3c1.6,1.6,2.3,3.5,2.3,5.7c0,2.3-0.8,4.2-2.3,5.7C88.3,40.5,86.4,41.3,84.2,41.3z M80.8,36.7
		c0.9,0.9,2.1,1.4,3.4,1.4c1.3,0,2.5-0.5,3.4-1.4c0.9-0.9,1.4-2.1,1.4-3.5s-0.5-2.5-1.4-3.5c-0.9-0.9-2.1-1.4-3.4-1.4
		c-1.4,0-2.5,0.5-3.4,1.4c-0.9,0.9-1.4,2.1-1.4,3.5S79.8,35.8,80.8,36.7z"/>
	<path class="st6" d="M98.6,28.1c0.8-1.9,2.4-2.9,4.7-2.9v3.6c-1.3-0.1-2.4,0.2-3.3,0.9c-0.9,0.7-1.4,1.8-1.4,3.4v7.7h-3.3V25.6h3.3
		V28.1z"/>
	<path class="st6" d="M26,57.2c1.8,0,3.2,0.6,4.3,1.7c1.1,1.1,1.6,2.7,1.6,4.6v9.4h-3.3v-9.1c0-1.1-0.3-2-0.9-2.6
		c-0.6-0.6-1.5-0.9-2.5-0.9c-1.2,0-2.1,0.4-2.8,1.1c-0.7,0.7-1.1,1.8-1.1,3.3v8.2h-3.3V51.4h3.3v8.1C22.2,58,23.8,57.2,26,57.2z"/>
	<path class="st6" d="M38.6,54.6c-0.4,0.4-0.9,0.6-1.5,0.6c-0.6,0-1.1-0.2-1.5-0.6c-0.4-0.4-0.6-0.9-0.6-1.5c0-0.6,0.2-1.1,0.6-1.5
		c0.4-0.4,0.9-0.6,1.5-0.6c0.6,0,1.1,0.2,1.5,0.6c0.4,0.4,0.6,0.9,0.6,1.5C39.2,53.7,39,54.2,38.6,54.6z M35.4,72.9V57.6h3.3v15.3
		H35.4z"/>
	<path class="st6" d="M45.9,60.1c0.8-1.9,2.4-2.9,4.7-2.9v3.6c-1.3-0.1-2.4,0.2-3.3,0.9c-0.9,0.7-1.4,1.8-1.4,3.4v7.7h-3.3V57.6h3.3
		V60.1z"/>
	<path class="st6" d="M55,66.6c0.2,1.2,0.8,2.1,1.7,2.7c0.9,0.6,2,0.9,3.2,0.9c1.8,0,3.1-0.6,4-1.9l2.7,1.6
		c-1.5,2.2-3.8,3.3-6.7,3.3c-2.5,0-4.5-0.8-6-2.3c-1.5-1.5-2.3-3.5-2.3-5.8c0-2.3,0.8-4.2,2.3-5.8c1.5-1.5,3.5-2.3,5.8-2.3
		c2.2,0,4.1,0.8,5.5,2.4s2.2,3.5,2.2,5.7c0,0.3,0,0.8-0.1,1.4H55z M55,63.9h9c-0.2-1.2-0.7-2.2-1.5-2.8c-0.8-0.6-1.8-1-2.8-1
		c-1.2,0-2.3,0.3-3.1,1C55.7,61.9,55.2,62.8,55,63.9z"/>
	<path class="st6" d="M73.9,72.6c-0.5,0.4-1,0.7-1.6,0.7S71,73,70.6,72.6c-0.5-0.4-0.7-1-0.7-1.6s0.2-1.2,0.7-1.6
		c0.4-0.4,1-0.7,1.6-0.7c0.6,0,1.2,0.2,1.6,0.7c0.4,0.4,0.7,1,0.7,1.6S74.3,72.1,73.9,72.6z M70.9,66.2l-0.7-8.6v-6.1h4v6.1
		l-0.7,8.6H70.9z"/>
</g>
<g>
	<path class="st6" d="M59.1,109c0.7-1.5,1.9-2.2,3.7-2.2v2.8c-1-0.1-1.9,0.2-2.6,0.7c-0.7,0.5-1.1,1.4-1.1,2.7v6h-2.6v-12h2.6V109z"
		/>
	<path class="st6" d="M69.8,119.3c-1.8,0-3.3-0.6-4.5-1.8c-1.2-1.2-1.8-2.7-1.8-4.5s0.6-3.3,1.8-4.5c1.2-1.2,2.7-1.8,4.5-1.8
		c1.8,0,3.3,0.6,4.5,1.8c1.2,1.2,1.8,2.7,1.8,4.5s-0.6,3.3-1.8,4.5C73.1,118.7,71.6,119.3,69.8,119.3z M67.1,115.7
		c0.7,0.7,1.6,1.1,2.7,1.1c1.1,0,1.9-0.4,2.7-1.1c0.7-0.7,1.1-1.6,1.1-2.7s-0.4-2-1.1-2.7c-0.7-0.7-1.6-1.1-2.7-1.1
		c-1.1,0-1.9,0.4-2.7,1.1c-0.7,0.7-1.1,1.6-1.1,2.7S66.4,115,67.1,115.7z"/>
	<path class="st6" d="M85.3,106.6c1.6,0,3.1,0.6,4.2,1.8c1.2,1.2,1.8,2.7,1.8,4.5c0,1.8-0.6,3.3-1.8,4.5c-1.2,1.2-2.6,1.8-4.2,1.8
		c-1.8,0-3.2-0.7-4.2-2v1.7h-2.6v-16.8h2.6v6.5C82,107.3,83.4,106.6,85.3,106.6z M82.1,115.7c0.7,0.7,1.6,1.1,2.7,1.1
		c1.1,0,2-0.4,2.7-1.1c0.7-0.7,1.1-1.6,1.1-2.7s-0.4-2-1.1-2.7c-0.7-0.7-1.6-1.1-2.7-1.1c-1.1,0-2,0.4-2.7,1.1
		c-0.7,0.7-1.1,1.6-1.1,2.7S81.4,115,82.1,115.7z"/>
	<path class="st6" d="M95.6,114.1c0.2,0.9,0.6,1.6,1.3,2.1c0.7,0.5,1.5,0.7,2.5,0.7c1.4,0,2.4-0.5,3.1-1.5l2.1,1.2
		c-1.2,1.7-2.9,2.6-5.3,2.6c-2,0-3.5-0.6-4.7-1.8c-1.2-1.2-1.8-2.7-1.8-4.5c0-1.8,0.6-3.3,1.8-4.5c1.2-1.2,2.7-1.8,4.6-1.8
		c1.8,0,3.2,0.6,4.3,1.8c1.1,1.2,1.7,2.7,1.7,4.5c0,0.3,0,0.6-0.1,1.1H95.6z M95.6,112h7.1c-0.2-1-0.6-1.7-1.2-2.2
		c-0.6-0.5-1.4-0.7-2.2-0.7c-1,0-1.8,0.3-2.4,0.8C96.2,110.3,95.8,111,95.6,112z"/>
	<path class="st6" d="M110.2,109c0.7-1.5,1.9-2.2,3.7-2.2v2.8c-1-0.1-1.9,0.2-2.6,0.7c-0.7,0.5-1.1,1.4-1.1,2.7v6h-2.6v-12h2.6V109z
		"/>
	<path class="st6" d="M122.8,109.5h-3v5.8c0,0.5,0.1,0.9,0.3,1.1s0.6,0.3,1,0.4c0.4,0,1,0,1.6,0v2.3c-2,0.2-3.4,0.1-4.3-0.5
		c-0.9-0.6-1.3-1.7-1.3-3.2v-5.8H115V107h2.2v-2.6l2.6-0.8v3.4h3V109.5z"/>
</g>
</svg>
